<svg width="29" height="29" viewBox="0 0 29 29" fill="none" xmlns="http://www.w3.org/2000/svg">
<g id="facebook_svgrepo.com">
<path id="Vector" d="M14.4717 2.46017C7.83886 2.46017 2.41199 7.87499 2.41199 14.544C2.41199 20.5739 6.82584 25.5787 12.5904 26.4832V18.0414H9.52722V14.544H12.5904V11.8788C12.5904 8.85183 14.3873 7.18759 17.149 7.18759C18.4635 7.18759 19.8383 7.41672 19.8383 7.41672V10.3955H18.3188C16.8234 10.3955 16.353 11.3241 16.353 12.2768V14.544H19.7056L19.1629 18.0414H16.353V26.4832C19.1948 26.0343 21.7826 24.5844 23.649 22.3949C25.5155 20.2056 26.5379 17.421 26.5314 14.544C26.5314 7.87499 21.1046 2.46017 14.4717 2.46017Z" fill="white"/>
</g>
</svg>
