<svg width="20" height="23" viewBox="0 0 20 23" fill="none" xmlns="http://www.w3.org/2000/svg">
<g id="Page-1">
<g id="Dribbble-Light-Preview">
<g id="icons">
<path id="apple-[#173]" fill-rule="evenodd" clip-rule="evenodd" d="M13.3063 3.67175C14.1447 2.70002 14.7099 1.34661 14.5552 0C13.347 0.0459993 11.8853 0.771807 11.019 1.74238C10.241 2.60371 9.56192 3.97997 9.74449 5.30014C11.0922 5.40018 12.4679 4.64461 13.3063 3.67175ZM16.3286 12.2186C16.3623 15.6995 19.5148 16.8575 19.5497 16.8724C19.5241 16.9541 19.0462 18.5223 17.8891 20.1438C16.8879 21.5445 15.8495 22.9394 14.2133 22.9693C12.6063 22.9981 12.0888 22.0563 10.2503 22.0563C8.41301 22.0563 7.83856 22.9393 6.31754 22.998C4.73838 23.0543 3.53482 21.4826 2.52662 20.0865C0.463713 17.2311 -1.11196 12.0174 1.00444 8.49853C2.05567 6.75173 3.93368 5.64387 5.97333 5.61627C7.52342 5.58752 8.98747 6.61577 9.93519 6.61577C10.8829 6.61577 12.6621 5.37955 14.532 5.56124C15.3146 5.59229 17.5124 5.86359 18.9229 7.84268C18.809 7.91053 16.3007 9.30916 16.3286 12.2186Z" fill="white"/>
</g>
</g>
</g>
</svg>
